<?xml version="1.0" encoding="UTF-8" standalone="no"?>
<svg
   xmlns:dc="http://purl.org/dc/elements/1.1/"
   xmlns:cc="http://web.resource.org/cc/"
   xmlns:rdf="http://www.w3.org/1999/02/22-rdf-syntax-ns#"
   xmlns:svg="http://www.w3.org/2000/svg"
   xmlns="http://www.w3.org/2000/svg"
   xmlns:sodipodi="http://inkscape.sourceforge.net/DTD/sodipodi-0.dtd"
   xmlns:inkscape="http://www.inkscape.org/namespaces/inkscape"
   viewBox="0 0 145 78"
   id="svg1579"
   sodipodi:version="0.32"
   inkscape:version="0.43+devel"
   width="744.09003"
   height="400.272"
   sodipodi:docname="Olivebranch.svg"
   sodipodi:docbase="C:\Documents and Settings\Jeremy Cushman\My Documents\My Pictures\Wikipedia Files\PNG to SVG"
   version="1.0"
   inkscape:r_cx="true"
   inkscape:r_cy="true">
  <metadata
     id="metadata1592">
    <rdf:RDF>
      <cc:Work
         rdf:about="">
        <dc:format>image/svg+xml</dc:format>
        <dc:type
           rdf:resource="http://purl.org/dc/dcmitype/StillImage" />
      </cc:Work>
    </rdf:RDF>
  </metadata>
  <defs
     id="defs1590" />
  <sodipodi:namedview
     inkscape:window-height="968"
     inkscape:window-width="1280"
     inkscape:pageshadow="2"
     inkscape:pageopacity="0.0"
     borderopacity="1.0"
     bordercolor="#666666"
     pagecolor="#ffffff"
     id="base"
     height="400.272px"
     width="744.09px"
     inkscape:zoom="1.4177628"
     inkscape:cx="401.54524"
     inkscape:cy="357.84638"
     inkscape:window-x="-4"
     inkscape:window-y="-4"
     inkscape:current-layer="svg1579" />
  <path
     d="M 125,21 C 133.332,17.4017 138.004,10.8076 140,2 C 131.768,4.80043 126.623,12.7823 125,21 M 121,9 C 115.423,14.8743 109.344,21.3927 111,30 C 116.736,25.9224 123.654,16.4819 121,9 M 105,17 C 99.4877,23.3758 96.0764,29.4521 96,38 C 102.695,34.4163 108.138,24.5495 105,17 M 91,22 C 86.9367,28.7251 80.7286,35.7187 83,44 C 89.5693,39.9945 94.1158,29.4955 91,22 z "
     id="path1583"
     style="fill:#007f00;stroke:none"
     inkscape:r_cx="true"
     inkscape:r_cy="true" />
  <path
     d="M 123,22 C 111.924,33.0683 94.8436,47.1444 78,46 C 73.0981,49.7183 64.0415,49.1726 58,50 C 37.7062,52.7794 14.2794,52.3969 4,74 C 12.8131,73.2993 18.6752,60.2677 28,57.3897 C 53.2896,49.5842 80.3415,54.3855 104,40.1998 C 109.807,36.718 123.162,29.6358 123,22 z "
     id="path1585"
     style="fill:#000000;stroke:none"
     inkscape:r_cx="true"
     inkscape:r_cy="true" />
  <path
     d="M 120,32 C 128.488,31.8239 135.85,28.9759 141,22 C 132.506,22.1753 124.21,23.9759 120,32 M 110,41 C 117.984,43.968 124.524,41.0661 132,38 C 125.775,33.747 114.666,35.2613 110,41 M 93,46 C 95.8923,54.6746 110.783,52.29 118,52 L 115,46 L 93,46 z "
     id="path1587"
     style="fill:#007f00;stroke:none"
     inkscape:r_cx="true"
     inkscape:r_cy="true" />
</svg>
